<?xml version="1.0" encoding="UTF-8"?>
<svg id="Camada_1" xmlns="http://www.w3.org/2000/svg" version="1.1" viewBox="135.84 365.28 1648.32 349.44" xmlns:c2pa="http://c2pa.org/manifest"><metadata><c2pa:manifest>AAAWgmp1bWIAAAAeanVtZGMycGEAEQAQgAAAqgA4m3EDYzJwYQAAABZcanVtYgAAAEdqdW1kYzJtYQARABCAAACqADibcQN1cm46YzJwYTozNzgyNmE3OS01NDlhLTRjNjctOGMwZi1jZGYzODJiMWM4NzgAAAADl2p1bWIAAAApanVtZGMyYXMAEQAQgAAAqgA4m3EDYzJwYS5hc3NlcnRpb25zAAAAALxqdW1iAAAARGp1bWRjYm9yABEAEIAAAKoAOJtxE2MycGEuaW5ncmVkaWVudC52MwAAAAAYYzJzaN+DGVpzhsKrE88GNfvIvKIAAABwY2JvcqNpZGM6Zm9ybWF0bWltYWdlL3N2Zyt4bWxqaW5zdGFuY2VJRHgseG1wOmlpZDoyOWFhNjJjYy0yZWExLTQ4OWQtYTk5Yy05NmNkMDYyYTEyMGZscmVsYXRpb25zaGlwaHBhcmVudE9mAAAB4mp1bWIAAABBanVtZGNib3IAEQAQgAAAqgA4m3ETYzJwYS5hY3Rpb25zLnYyAAAAABhjMnNoXqkXlF7OKOuwdAGiRBopVwAAAZljYm9yomdhY3Rpb25zgqJmYWN0aW9ua2MycGEub3BlbmVkanBhcmFtZXRlcnOha2luZ3JlZGllbnRzgaJjdXJseC1zZWxmI2p1bWJmPWMycGEuYXNzZXJ0aW9ucy9jMnBhLmluZ3JlZGllbnQudjNkaGFzaFggQvo3npr3K3yNujzuFrIC2pidfPdAYgkEFouEK+ob1lKkZmFjdGlvbngdY29tLmFudGhyb3BpYy5jbGF1ZGUucHJvdmlkZWRqcGFyYW1ldGVyc6F4H2NvbS5hbnRocm9waWMub3JpZ2luLWNvbmZpZGVuY2VndW5rbm93bmtkZXNjcmlwdGlvbnhmQ2xhdWRlIHByb3ZpZGVkIHRoaXMgZmlsZSBhdCB0aGUgcmVxdWVzdCBvZiBhIHVzZXIgYW5kIG1heSBoYXZlIGNyZWF0ZWQgb3IgbW9kaWZpZWQgdGhlIGZpbGUgY29udGVudHMubXNvZnR3YXJlQWdlbnShZG5hbWVmQ2xhdWRlcmFsbEFjdGlvbnNJbmNsdWRlZPUAAADIanVtYgAAAEBqdW1kY2JvcgARABCAAACqADibcRNjMnBhLmhhc2guZGF0YQAAAAAYYzJzaOzWXBL/X0GuMh4RlYLUWR4AAACAY2JvcqVjYWxnZnNoYTI1NmNwYWRNAAAAAAAAAAAAAAAAAGRoYXNoWCCSHuU8Lyqz7BPkz2jeCOXhQ9NoUNTUTslmnwkP7jPNXWRuYW1lbmp1bWJmIG1hbmlmZXN0amV4Y2x1c2lvbnOBomVzdGFydBjRZmxlbmd0aBkeBAAAAj5qdW1iAAAAJ2p1bWRjMmNsABEAEIAAAKoAOJtxA2MycGEuY2xhaW0udjIAAAACD2Nib3KlY2FsZ2ZzaGEyNTZpc2lnbmF0dXJleE1zZWxmI2p1bWJmPS9jMnBhL3VybjpjMnBhOjM3ODI2YTc5LTU0OWEtNGM2Ny04YzBmLWNkZjM4MmIxYzg3OC9jMnBhLnNpZ25hdHVyZWppbnN0YW5jZUlEeCx4bXA6aWlkOmIxNzYzMDk5LWNlNmItNGU2ZS1hYmU4LTMzYmFjNWMwYzc0ZnJjcmVhdGVkX2Fzc2VydGlvbnODomN1cmx4LXNlbGYjanVtYmY9YzJwYS5hc3NlcnRpb25zL2MycGEuaW5ncmVkaWVudC52M2RoYXNoWCBC+jeemvcrfI26PO4WsgLamJ1890BiCQQWi4Qr6hvWUqJjdXJseCpzZWxmI2p1bWJmPWMycGEuYXNzZXJ0aW9ucy9jMnBhLmFjdGlvbnMudjJkaGFzaFggNG9MFIQ+/xv0G7OvASJm5EFetlKK7WYhrOi/pStbH2WiY3VybHgpc2VsZiNqdW1iZj1jMnBhLmFzc2VydGlvbnMvYzJwYS5oYXNoLmRhdGFkaGFzaFgg1mdxAE1cKvlgn2y7mP4nmfQbMgob78W5N8Tjow18FQR0Y2xhaW1fZ2VuZXJhdG9yX2luZm+jZG5hbWVvQW50aHJvcGljIEZpbGVzZ3ZlcnNpb25lMS4wLjBrc3BlY1ZlcnNpb25lMi40LjAAABA4anVtYgAAAChqdW1kYzJjcwARABCAAACqADibcQNjMnBhLnNpZ25hdHVyZQAAABAIY2JvctKEWQISogEmGCFZAgowggIGMIIBjaADAgECAhRA5aAK7sI50L64g/oGQgU9Z1UTADAKBggqhkjOPQQDAzBJMRcwFQYDVQQKEw5BbnRocm9waWMsIFBCQzEuMCwGA1UEAxMlQW50aHJvcGljIENvbnRlbnQgQ3JlZGVudGlhbHMgUm9vdCBDQTAeFw0yNjA4MDcxODQzNTZaFw0yODA4MDYxOTQzNTZaMEQxFzAVBgNVBAoTDkFudGhyb3BpYywgUEJDMSkwJwYDVQQDEyBBbnRocm9waWMgQ2xhdWRlIENvbnRlbnQgU2lnbmluZzBZMBMGByqGSM49AgEGCCqGSM49AwEHA0IABJh6CmvLUBgFFNU0vUKlOVtE6djd17L5SuwX0LemFisBM3dkd/3cyjxFA3Qo5S46fX0/ihY0VZ7mfb9KF703t5OjWDBWMA4GA1UdDwEB/wQEAwIHgDAVBgNVHSUEDjAMBgorBgEEAYPoXgIBMAwGA1UdEwEB/wQCMAAwHwYDVR0jBBgwFoAUzlHiBIFOZFsj+OPEz5o+nMHXXMIwCgYIKoZIzj0EAwMDZwAwZAIwMXMdFJ4BetLLVY7ORuE9noqbbAZOZn/aArXyTwFAZfKrPzxF2vPoJNf1+UCdg1XGAjBwX1zd9WGqYkqmL5SFqw1QySjr1zJfpJM9+1rdDwSPLMOPOjKuiXjoU/pUUeG9RwmhY3BhZFkNngAAAAAAAAAAAAAAAAAAAAAAAAAAAAAAAAAAAAAAAAAAAAAAAAAAAAAAAAAAAAAAAAAAAAAAAAAAAAAAAAAAAAAAAAAAAAAAAAAAAAAAAAAAAAAAAAAAAAAAAAAAAAAAAAAAAAAAAAAAAAAAAAAAAAAAAAAAAAAAAAAAAAAAAAAAAAAAAAAAAAAAAAAAAAAAAAAAAAAAAAAAAAAAAAAAAAAAAAAAAAAAAAAAAAAAAAAAAAAAAAAAAAAAAAAAAAAAAAAAAAAAAAAAAAAAAAAAAAAAAAAAAAAAAAAAAAAAAAAAAAAAAAAAAAAAAAAAAAAAAAAAAAAAAAAAAAAAAAAAAAAAAAAAAAAAAAAAAAAAAAAAAAAAAAAAAAAAAAAAAAAAAAAAAAAAAAAAAAAAAAAAAAAAAAAAAAAAAAAAAAAAAAAAAAAAAAAAAAAAAAAAAAAAAAAAAAAAAAAAAAAAAAAAAAAAAAAAAAAAAAAAAAAAAAAAAAAAAAAAAAAAAAAAAAAAAAAAAAAAAAAAAAAAAAAAAAAAAAAAAAAAAAAAAAAAAAAAAAAAAAAAAAAAAAAAAAAAAAAAAAAAAAAAAAAAAAAAAAAAAAAAAAAAAAAAAAAAAAAAAAAAAAAAAAAAAAAAAAAAAAAAAAAAAAAAAAAAAAAAAAAAAAAAAAAAAAAAAAAAAAAAAAAAAAAAAAAAAAAAAAAAAAAAAAAAAAAAAAAAAAAAAAAAAAAAAAAAAAAAAAAAAAAAAAAAAAAAAAAAAAAAAAAAAAAAAAAAAAAAAAAAAAAAAAAAAAAAAAAAAAAAAAAAAAAAAAAAAAAAAAAAAAAAAAAAAAAAAAAAAAAAAAAAAAAAAAAAAAAAAAAAAAAAAAAAAAAAAAAAAAAAAAAAAAAAAAAAAAAAAAAAAAAAAAAAAAAAAAAAAAAAAAAAAAAAAAAAAAAAAAAAAAAAAAAAAAAAAAAAAAAAAAAAAAAAAAAAAAAAAAAAAAAAAAAAAAAAAAAAAAAAAAAAAAAAAAAAAAAAAAAAAAAAAAAAAAAAAAAAAAAAAAAAAAAAAAAAAAAAAAAAAAAAAAAAAAAAAAAAAAAAAAAAAAAAAAAAAAAAAAAAAAAAAAAAAAAAAAAAAAAAAAAAAAAAAAAAAAAAAAAAAAAAAAAAAAAAAAAAAAAAAAAAAAAAAAAAAAAAAAAAAAAAAAAAAAAAAAAAAAAAAAAAAAAAAAAAAAAAAAAAAAAAAAAAAAAAAAAAAAAAAAAAAAAAAAAAAAAAAAAAAAAAAAAAAAAAAAAAAAAAAAAAAAAAAAAAAAAAAAAAAAAAAAAAAAAAAAAAAAAAAAAAAAAAAAAAAAAAAAAAAAAAAAAAAAAAAAAAAAAAAAAAAAAAAAAAAAAAAAAAAAAAAAAAAAAAAAAAAAAAAAAAAAAAAAAAAAAAAAAAAAAAAAAAAAAAAAAAAAAAAAAAAAAAAAAAAAAAAAAAAAAAAAAAAAAAAAAAAAAAAAAAAAAAAAAAAAAAAAAAAAAAAAAAAAAAAAAAAAAAAAAAAAAAAAAAAAAAAAAAAAAAAAAAAAAAAAAAAAAAAAAAAAAAAAAAAAAAAAAAAAAAAAAAAAAAAAAAAAAAAAAAAAAAAAAAAAAAAAAAAAAAAAAAAAAAAAAAAAAAAAAAAAAAAAAAAAAAAAAAAAAAAAAAAAAAAAAAAAAAAAAAAAAAAAAAAAAAAAAAAAAAAAAAAAAAAAAAAAAAAAAAAAAAAAAAAAAAAAAAAAAAAAAAAAAAAAAAAAAAAAAAAAAAAAAAAAAAAAAAAAAAAAAAAAAAAAAAAAAAAAAAAAAAAAAAAAAAAAAAAAAAAAAAAAAAAAAAAAAAAAAAAAAAAAAAAAAAAAAAAAAAAAAAAAAAAAAAAAAAAAAAAAAAAAAAAAAAAAAAAAAAAAAAAAAAAAAAAAAAAAAAAAAAAAAAAAAAAAAAAAAAAAAAAAAAAAAAAAAAAAAAAAAAAAAAAAAAAAAAAAAAAAAAAAAAAAAAAAAAAAAAAAAAAAAAAAAAAAAAAAAAAAAAAAAAAAAAAAAAAAAAAAAAAAAAAAAAAAAAAAAAAAAAAAAAAAAAAAAAAAAAAAAAAAAAAAAAAAAAAAAAAAAAAAAAAAAAAAAAAAAAAAAAAAAAAAAAAAAAAAAAAAAAAAAAAAAAAAAAAAAAAAAAAAAAAAAAAAAAAAAAAAAAAAAAAAAAAAAAAAAAAAAAAAAAAAAAAAAAAAAAAAAAAAAAAAAAAAAAAAAAAAAAAAAAAAAAAAAAAAAAAAAAAAAAAAAAAAAAAAAAAAAAAAAAAAAAAAAAAAAAAAAAAAAAAAAAAAAAAAAAAAAAAAAAAAAAAAAAAAAAAAAAAAAAAAAAAAAAAAAAAAAAAAAAAAAAAAAAAAAAAAAAAAAAAAAAAAAAAAAAAAAAAAAAAAAAAAAAAAAAAAAAAAAAAAAAAAAAAAAAAAAAAAAAAAAAAAAAAAAAAAAAAAAAAAAAAAAAAAAAAAAAAAAAAAAAAAAAAAAAAAAAAAAAAAAAAAAAAAAAAAAAAAAAAAAAAAAAAAAAAAAAAAAAAAAAAAAAAAAAAAAAAAAAAAAAAAAAAAAAAAAAAAAAAAAAAAAAAAAAAAAAAAAAAAAAAAAAAAAAAAAAAAAAAAAAAAAAAAAAAAAAAAAAAAAAAAAAAAAAAAAAAAAAAAAAAAAAAAAAAAAAAAAAAAAAAAAAAAAAAAAAAAAAAAAAAAAAAAAAAAAAAAAAAAAAAAAAAAAAAAAAAAAAAAAAAAAAAAAAAAAAAAAAAAAAAAAAAAAAAAAAAAAAAAAAAAAAAAAAAAAAAAAAAAAAAAAAAAAAAAAAAAAAAAAAAAAAAAAAAAAAAAAAAAAAAAAAAAAAAAAAAAAAAAAAAAAAAAAAAAAAAAAAAAAAAAAAAAAAAAAAAAAAAAAAAAAAAAAAAAAAAAAAAAAAAAAAAAAAAAAAAAAAAAAAAAAAAAAAAAAAAAAAAAAAAAAAAAAAAAAAAAAAAAAAAAAAAAAAAAAAAAAAAAAAAAAAAAAAAAAAAAAAAAAAAAAAAAAAAAAAAAAAAAAAAAAAAAAAAAAAAAAAAAAAAAAAAAAAAAAAAAAAAAAAAAAAAAAAAAAAAAAAAAAAAAAAAAAAAAAAAAAAAAAAAAAAAAAAAAAAAAAAAAAAAAAAAAAAAAAAAAAAAAAAAAAAAAAAAAAAAAAAAAAAAAAAAAAAAAAAAAAAAAAAAAAAAAAAAAAAAAAAAAAAAAAAAAAAAAAAAAAAAAAAAAAAAAAAAAAAAAAAAAAAAAAAAAAAAAAAAAAAAAAAAAAAAAAAAAAAAAAAAAAAAAAAAAAAAAAAAAAAAAAAAAAAAAAAAAAAAAAAAAAAAAAAAAAAAAAAAAAAAAAAAAAAAAAAAAAAAAAAAAAAAAAAAAAAAAAAAAAAAAAAAAAAAAAAAAAAAAAAAAAAAAAAAAAAAAAAAAAAAAAAAAAAAAAAAAAAAAAAAAAAAAAAAAAAAAAAAAAAAAAAAAAAAAAAAAAAAAAAAAAAAAAAAAAAAAAAAAAAAAAAAAAAAAAAAAAAAAAAAAAAAAAAAAAAAAAAAAAAAAAAAAAAAAAAAAAAAAAAAAAAAAAAAAAAAAAAAAAAAAAAAAAAAAAAAAAAAAAAAAAAAAAAAAAAAAAAAAAAAAAAAAAAAAAAAAAAAAAAAAAAAAAAAAAAAAAAAAAAAAAAAAAAAAAAAAAAAAAAAAAAAAAAAAAAAAAAAAAAAAAAAAAAAAAAAAAAAAAAAAAAAAAAAAAAAAAAAAAAAAAAAAAAAAAAAAAAAAAAAAAAAAAAAAAAAAAAAAAAAAAAAAAAAAAAAAAAAAAAAAAAAAAAAAAAAAAAAAAAAAAAAAAAAAAAAAAAAAAAAAAAAAAAAAAAAAAAAAAAAAAAAAAAAAAAAAAAAAAAAAAAAAAAAAAAAAAAAAAAAAAAAAAAAAAAAAAAAAAAAAAAAAAAAAAAAAAAAAAAAAAAAAAAAAAAAAAAAAAAAAAAAAAAAAAAAAAAAAAAAAAAAAAAAAAAAAAAAAAAAAAAAAAAAAAAAAAAAAAAAAAAAAAAAAAAAAAAAAAAAAAAAAAAAAAAAAAAAAAAAAAAAAAAAAAAAAAAAAAAAAAAAAAAAAAAAAAAAAAAAAAAAAAAAAAAAAAAAAAAAAAAAAAAAAAAAAAAAAAAAAAAAAAAAAAAAAAAAAAAAAAAAAAAAAAAAAAAAAAAAAAAAAAAAAAAAAAAAAAAAAAAAAAAAAAAAAAAAAAAAAAAAAAAAAAAAAAAAAAAAAAAAAAAAAAAAAAAAAAAAAAAAAAAAAAAAAAAAAAAAAAAAAAAAAAAAAAAAAAAAAAAAAAAAAAAAAAAAAAAAAAAAAAAAAAAAAAAAAAAAAAAAAAAAAAAAAAAAAAAAAAAAAAAAAAAAAAAAAAAAAAAAAAAAAAAAAAAAAAAAAAAAAAAAAAAAAAAAAAAAAAAAAAAAAAAAAAAAAAAAAAAAAAAAAAAAAAAAAAAAAAAAAAAAAAAAAAAAAAAAAAAAAAAAAAAAAAAAAAAAAAAAAAAAAAAAAAAAAAAAAAAAAAAAAAAAAAAAAAAAAAAAAAAAAAAAAAAAAAAAAAAAAAAAAAAAAAAAAAAAAAAAAAAAAAAAAAAAAAAAAAAAAAAAAAAAPZYQP3wkbAyLk0cKBXfR2tP309aj80qGkTM5H7TRtMfmfz+THxh5dWOU/wfAULwidgBqJQEJ5j/1hQPuhumbyTCK3Y=</c2pa:manifest></metadata>
  <!-- Generator: Adobe Illustrator 29.6.0, SVG Export Plug-In . SVG Version: 2.1.1 Build 207)  -->
  <defs>
    <style>
      .st0 {
        fill: #510303;
      }
    </style>
  </defs>
  <rect class="st0" x="819.03" y="373.6" width="4.7" height="332.79"/>
  <g id="Qe0oy0.tif">
    <g>
      <path class="st0" d="M418.33,616.19h-26.31l-42.56-67.25h-29.41v67.25h-16.25v-173.14h66.94c38.13,0,51.72,53.15,28.64,79.62-7.38,8.46-16.81,17.43-26.69,22.79l45.64,70.73ZM320.05,533.48h52.24c3.3,0,13.75-2.48,16.69-4.2,3.38-1.99,4.82-7.6,5.64-11.37,4.72-21.72-5.02-47.52-26.59-55.91-1.67-.65-7.57-2.72-8.89-2.72h-39.08v74.2Z"/>
      <path class="st0" d="M581.45,440.18c56.4-5.73,100.66,44.62,85.84,99.65-8.08,29.99-33.36,60.15-61.94,72.62-56.3,24.56-114.74-22.21-109.62-81.67,3.44-39.92,45.18-86.49,85.73-90.61ZM572.16,455.64c-17.7.82-40.24,8.13-49.5,23.99-35.84,61.4,17.92,138.71,88.52,120.88,25.62-6.47,36.86-20.59,42.04-46.13,10.23-50.54-28.25-101.19-81.06-98.74Z"/>
      <polygon class="st0" points="275.94 443.05 275.94 458.5 217.9 454.4 217.9 616.19 202.42 616.19 202.42 455.56 201.26 454.4 144.38 458.5 144.38 443.05 275.94 443.05"/>
      <rect class="st0" x="443.86" y="443.05" width="15.48" height="173.14"/>
    </g>
  </g>
  <g>
    <polygon class="st0" points="1040.85 532.08 1031.14 442.43 990.79 520.03 950.43 442.43 940.72 532.08 928.92 532.08 943.11 404.76 990.79 496.37 1038.47 404.76 1052.65 532.08 1040.85 532.08"/>
    <polygon class="st0" points="1072.02 532.08 1072.02 412.34 1137.54 412.34 1137.54 423.62 1083.8 423.62 1083.8 460.88 1134.19 460.88 1134.19 472.16 1083.8 472.16 1083.8 520.81 1137.54 520.81 1137.54 532.08 1072.02 532.08"/>
    <polygon class="st0" points="1180.49 532.08 1180.49 423.62 1149.69 423.62 1149.69 412.34 1223.07 412.34 1223.07 423.62 1192.27 423.62 1192.27 532.08 1180.49 532.08"/>
    <path class="st0" d="M1296.27,532.08l-34.18-49.21h-13.4v49.21h-11.78v-119.75h28.07c7.74,0,14.76,1.39,20.87,4.13,6.16,2.76,11.1,6.8,14.68,11.99,3.59,5.22,5.41,11.66,5.41,19.15s-1.82,13.81-5.4,19.13c-3.59,5.32-8.53,9.39-14.7,12.09-3.34,1.47-6.97,2.54-10.81,3.21l35.81,50.04h-14.56ZM1264.97,472.1c5.71,0,10.87-.95,15.32-2.83,4.37-1.84,7.81-4.61,10.23-8.23,2.41-3.61,3.63-8.13,3.63-13.43s-1.25-9.77-3.7-13.33c-2.48-3.58-5.93-6.36-10.26-8.26-4.4-1.93-9.51-2.9-15.22-2.9h-16.29v48.99h16.29Z"/>
    <path class="st0" d="M1377.29,533.59c-8.51,0-16.48-1.55-23.69-4.62-7.22-3.07-13.58-7.42-18.92-12.93-5.34-5.51-9.54-12.07-12.49-19.5-2.95-7.42-4.44-15.61-4.44-24.33s1.49-16.91,4.44-24.33c2.95-7.43,7.15-13.99,12.49-19.5,5.34-5.51,11.7-9.86,18.92-12.93,7.21-3.07,15.18-4.62,23.69-4.62s16.47,1.55,23.69,4.62c7.21,3.07,13.57,7.42,18.92,12.93,5.34,5.51,9.54,12.07,12.49,19.5,2.95,7.42,4.44,15.61,4.44,24.33s-1.49,16.91-4.44,24.33c-2.95,7.43-7.15,13.99-12.49,19.5-5.34,5.51-11.7,9.86-18.92,12.93-7.21,3.07-15.18,4.62-23.69,4.62ZM1377.29,422.61c-9.09,0-17.29,2.16-24.36,6.43-7.08,4.27-12.72,10.19-16.78,17.59-4.06,7.42-6.12,16.02-6.12,25.58s2.06,18.03,6.12,25.5c4.06,7.46,9.7,13.41,16.77,17.67,7.07,4.27,15.26,6.43,24.36,6.43s17.29-2.16,24.36-6.43c7.07-4.26,12.69-10.21,16.69-17.67,4.01-7.48,6.04-16.06,6.04-25.5s-2.03-18.16-6.04-25.59c-4-7.4-9.61-13.32-16.69-17.59-7.08-4.26-15.27-6.43-24.36-6.43Z"/>
    <path class="st0" d="M1180.49,640.59v-119.75h28.74c7.52,0,14.33,1.45,20.23,4.31,5.93,2.88,10.69,7.03,14.16,12.34,3.47,5.32,5.23,11.81,5.23,19.29s-1.76,13.84-5.22,19.27c-3.46,5.43-8.23,9.61-14.18,12.44-5.89,2.8-12.69,4.22-20.22,4.22h-16.96v47.88h-11.78ZM1209.23,581.44c8.25,0,15.01-2.15,20.1-6.4,5.03-4.19,7.57-10.33,7.57-18.26s-2.55-14.21-7.56-18.34c-5.1-4.19-11.86-6.32-20.11-6.32h-16.96v49.32h16.96Z"/>
    <path class="st0" d="M1320.54,642.1c-8.51,0-16.48-1.55-23.69-4.62-7.21-3.06-13.58-7.41-18.92-12.92-5.33-5.51-9.54-12.07-12.49-19.5-2.95-7.42-4.44-15.61-4.44-24.33s1.49-16.91,4.44-24.33c2.95-7.43,7.15-13.99,12.49-19.5,5.34-5.51,11.7-9.86,18.92-12.93,7.21-3.07,15.18-4.62,23.69-4.62s16.47,1.55,23.68,4.62c7.21,3.07,13.57,7.41,18.92,12.93,5.33,5.51,9.54,12.07,12.49,19.5,2.95,7.43,4.44,15.61,4.44,24.33s-1.49,16.9-4.44,24.33c-2.95,7.44-7.16,14-12.49,19.5-5.34,5.51-11.71,9.86-18.92,12.92-7.21,3.07-15.18,4.62-23.68,4.62ZM1320.54,531.12c-9.09,0-17.29,2.16-24.36,6.43-7.08,4.27-12.72,10.19-16.78,17.6-4.06,7.42-6.12,16.02-6.12,25.58s2.06,18.02,6.12,25.5c4.05,7.46,9.7,13.41,16.77,17.68,7.07,4.26,15.27,6.42,24.36,6.42s17.29-2.16,24.36-6.42c7.08-4.27,12.69-10.21,16.69-17.67,4.01-7.48,6.04-16.06,6.04-25.5s-2.03-18.16-6.04-25.59c-4-7.4-9.61-13.32-16.69-17.59-7.07-4.26-15.27-6.43-24.36-6.43Z"/>
    <polygon class="st0" points="1398.94 640.59 1398.94 520.84 1410.71 520.84 1410.71 629.31 1459.09 629.31 1459.09 640.59 1398.94 640.59"/>
    <rect class="st0" x="1472.58" y="520.84" width="11.78" height="119.75"/>
    <polygon class="st0" points="1528.66 640.59 1528.66 532.12 1497.86 532.12 1497.86 520.84 1571.24 520.84 1571.24 532.12 1540.44 532.12 1540.44 640.59 1528.66 640.59"/>
    <path class="st0" d="M1649.27,640.59l-16.17-39.34h-48.72l-16.07,39.34h-13.19l53.67-126.27,53.67,126.27h-13.18ZM1628.51,589.98l-19.72-47.73-19.61,47.73h39.33Z"/>
    <polygon class="st0" points="1686.57 544.99 1686.57 640.59 1674.79 640.59 1674.79 514.17 1763.84 616.78 1763.84 520.84 1775.62 520.84 1775.62 647.26 1686.57 544.99"/>
  </g>
</svg>